<?xml version="1.0" encoding="iso-8859-1"?>
<!-- Generator: Adobe Illustrator 19.0.0, SVG Export Plug-In . SVG Version: 6.00 Build 0)  -->
<svg version="1.1" id="Layer_1" xmlns="http://www.w3.org/2000/svg" xmlns:xlink="http://www.w3.org/1999/xlink" x="0px" y="0px"
	 viewBox="0 0 512 512" style="enable-background:new 0 0 512 512;" xml:space="preserve">
<g>
	<g>
		<path d="M509.769,84.872l-81.2-81.2c-2.976-2.975-7.8-2.975-10.775,0l-19.718,19.718c-2.975,2.975-2.975,7.8,0,10.774
			l18.737,18.737l-72.496,72.496c-0.028,0.027-0.057,0.057-0.084,0.084l-88.385,88.385c-0.01,0.01-0.019,0.019-0.029,0.029
			l-84.266,84.266l-30.574,30.574l-29.843-29.843c-2.975-2.975-7.8-2.975-10.774,0l-83.762,83.761
			C4.285,394.969-1.624,411.952,0.386,429.25l6.691,57.592c1.02,8.778,7.863,15.621,16.641,16.641l57.593,6.691
			c2.223,0.258,4.438,0.386,6.642,0.386c14.942,0,29.222-5.868,39.953-16.599l83.761-83.761c2.975-2.975,2.975-7.8,0-10.774
			l-29.843-29.843l30.574-30.574l99.686-99.686c0.006-0.006,0.012-0.012,0.018-0.018L457.658,93.747l21.616,21.616
			c1.488,1.488,3.438,2.232,5.388,2.232c1.949,0,3.9-0.744,5.387-2.232l19.719-19.718c1.429-1.428,2.232-3.367,2.232-5.387
			C512,88.238,511.197,86.3,509.769,84.872z M195.505,404.813l-78.374,78.374c-9.001,9-21.416,13.32-34.062,11.852l-57.592-6.691
			c-1.722-0.2-3.064-1.543-3.264-3.264l-6.691-57.592c-1.469-12.644,2.851-25.059,11.852-34.062l78.374-78.374l24.456,24.456
			l-23.097,23.097c-2.045,2.045-2.756,5.071-1.836,7.813l7.559,22.511c0.76,2.262,2.536,4.037,4.797,4.797l22.511,7.559
			c0.794,0.267,1.613,0.396,2.425,0.396c1.989,0,3.936-0.779,5.388-2.232l23.097-23.097L195.505,404.813z M140.514,389.342
			l-14.444-4.851l-4.851-14.444l25.128-25.128c0.007-0.006,0.014-0.012,0.02-0.018s0.012-0.014,0.018-0.02l30.554-30.554
			l19.296,19.296L140.514,389.342z M219.457,310.399l-12.447,12.447l-19.296-19.296l44.143-44.142
			C221.818,284.701,219.829,303.104,219.457,310.399z M237.55,292.306c3.615-16.051,11.691-40.109,29.718-68.309l4.414-4.414
			c-14.63,30.443-22.705,56.207-24.851,63.443L237.55,292.306z M301.063,228.792L271.6,258.255
			c8.498-21.853,22.124-52.072,41.055-79.647l25.174-25.174C327.328,194.407,303.609,225.535,301.063,228.792z M342.325,187.532
			c6.554-15.456,12.249-33.576,14.589-53.18l70.675-70.675l0.457,0.457c-13.085,13.163-44.96,48.951-65.866,103.543L342.325,187.532
			z M393.672,136.183c17.277-31.105,36.277-52.212,45.175-61.247l8.036,8.036L393.672,136.183z M484.662,99.202l-21.615-21.615
			c0,0-0.001-0.001-0.002-0.002l-30.07-30.07c-0.001-0.001-0.002-0.002-0.003-0.002l-18.735-18.735l8.944-8.944l70.425,70.425
			L484.662,99.202z"/>
	</g>
</g>
<g>
</g>
<g>
</g>
<g>
</g>
<g>
</g>
<g>
</g>
<g>
</g>
<g>
</g>
<g>
</g>
<g>
</g>
<g>
</g>
<g>
</g>
<g>
</g>
<g>
</g>
<g>
</g>
<g>
</g>
</svg>
